<?xml version="1.0" standalone="no"?>
<!DOCTYPE svg PUBLIC "-//W3C//DTD SVG 1.1//EN" "http://www.w3.org/Graphics/SVG/1.1/DTD/svg11.dtd" >
<svg xmlns="http://www.w3.org/2000/svg">
<metadata></metadata>
<defs>
<font id="teuton_weissregular" horiz-adv-x="964" >
<font-face units-per-em="2048" ascent="1638" descent="-410" />
<missing-glyph horiz-adv-x="538" />
<glyph horiz-adv-x="2048" />
<glyph horiz-adv-x="2048" />
<glyph unicode="&#xd;" horiz-adv-x="2048" />
<glyph unicode=" "  horiz-adv-x="538" />
<glyph unicode="&#x09;" horiz-adv-x="538" />
<glyph unicode="&#xa0;" horiz-adv-x="538" />
<glyph unicode="!" horiz-adv-x="372" d="M156 0v74h65v-74h-65zM166 260v1174h45v-1174h-45z" />
<glyph unicode="&#x22;" horiz-adv-x="540" d="M162 1434h53l-6 -312h-41zM328 1434h53l-6 -312h-41z" />
<glyph unicode="#" horiz-adv-x="899" d="M41 430v41h158l86 512h-154v41h160l69 410h50l-70 -410h330l69 410h49l-69 -410h139v-41h-145l-86 -512h145v-41h-154l-71 -430h-49l71 430h-329l-72 -430h-49l71 430h-149zM248 471h330l86 512h-330z" />
<glyph unicode="$" horiz-adv-x="819" d="M135 207v53q25 -10 66 -10h362q31 0 54.5 25.5t23.5 60.5v168q0 65 -37 92l-405 311q-64 51 -64 131v64q0 57 36.5 93t96.5 36h131v203h45v-203h242v-53q-25 10 -65 10h-361q-31 0 -55.5 -25.5t-24.5 -60.5v-64q0 -59 37 -86l412 -315q57 -44 57 -133v-168 q0 -57 -36.5 -93t-96.5 -36h-109v-207h-45v207h-264z" />
<glyph unicode="%" horiz-adv-x="1083" d="M123 934v332q0 76 44 122t124 46h67q80 0 124 -46t44 -122v-332q0 -76 -44 -122t-124 -46h-67q-80 0 -124 46t-44 122zM127 0l778 1434h49l-778 -1434h-49zM168 934q0 -62 32.5 -96.5t90.5 -34.5h67q58 0 90.5 34.5t32.5 96.5v332q0 62 -32.5 96.5t-90.5 34.5h-67 q-58 0 -90.5 -34.5t-32.5 -96.5v-332zM557 168v332q0 76 44 122t124 46h68q80 0 124 -46t44 -122v-332q0 -76 -44 -122t-124 -46h-68q-80 0 -124 46t-44 122zM602 168q0 -62 32.5 -96.5t90.5 -34.5h68q57 0 89.5 34t32.5 97v332q0 63 -32.5 97t-89.5 34h-68 q-58 0 -90.5 -34.5t-32.5 -96.5v-332z" />
<glyph unicode="&#x26;" horiz-adv-x="1204" d="M174 168v532q0 168 158 168q-158 0 -158 168v230q0 80 43 124t125 44h571v-62q-29 10 -61 10h-520q-105 0 -105 -116v-258q0 -49 31 -83t74 -34h530l51 45v-45h207v-41h-207v-723q0 -76 68 -76h74q40 0 65 10v-61h-133q-62 0 -93.5 35t-31.5 94v721h-530q-43 0 -74 -34 t-31 -83v-565q0 -54 29 -85.5t76 -31.5h321q35 0 60 10v-61h-371q-82 0 -125 44t-43 124z" />
<glyph unicode="'" horiz-adv-x="407" d="M162 1434h53l-6 -312h-41z" />
<glyph unicode="(" horiz-adv-x="690" d="M184 -70v1166q0 126 33.5 197.5t116.5 106t233 34.5v-41q-104 0 -169.5 -16t-102 -55t-49.5 -91t-13 -135v-1168q0 -83 13.5 -135.5t50 -90.5t102 -54.5t168.5 -16.5v-41q-149 0 -232 34.5t-117 106.5t-34 199z" />
<glyph unicode=")" horiz-adv-x="690" d="M123 -369q103 0 168.5 16.5t102 54.5t50 90.5t13.5 135.5v1168q0 83 -13 135t-49.5 91t-102 55t-169.5 16v41q150 0 233 -34.5t116.5 -106t33.5 -197.5v-1166q0 -127 -34 -199t-117 -106.5t-232 -34.5v41z" />
<glyph unicode="*" horiz-adv-x="839" d="M102 1180l23 61l285 -113l-23 306h64l-21 -306l285 115l22 -61l-299 -76l199 -236l-55 -39l-162 261l-160 -261l-55 39l196 236z" />
<glyph unicode="+" horiz-adv-x="917" d="M102 584v41h336v336h41v-336h336v-41h-336v-336h-41v336h-336z" />
<glyph unicode="," horiz-adv-x="372" d="M68 -283l92 228v129h57v-142l-96 -215h-53z" />
<glyph unicode="-" horiz-adv-x="606" d="M102 578v53h402v-53h-402z" />
<glyph unicode="." horiz-adv-x="352" d="M143 0v74h66v-74h-66z" />
<glyph unicode="/" horiz-adv-x="815" d="M4 -410l760 1844h59l-757 -1844h-62z" />
<glyph unicode="0" horiz-adv-x="1044" d="M184 168v1098q0 76 44 122t124 46h340q80 0 124 -46t44 -122v-1098q0 -76 -44 -122t-124 -46h-340q-80 0 -124 46t-44 122zM233 172q0 -62 32.5 -96.5t90.5 -34.5h332q58 0 90.5 34.5t32.5 96.5v1090q0 62 -32.5 96.5t-90.5 34.5h-332q-58 0 -90.5 -34.5t-32.5 -96.5 v-1090z" />
<glyph unicode="1" horiz-adv-x="1044" d="M209 1143v59l369 256v-1417h286v-41h-622v41h286v1329z" />
<glyph unicode="2" horiz-adv-x="1044" d="M195 0v395q0 91 84 166l489 438q59 53 59 138v123q0 64 -33 98.5t-92 34.5h-417q-39 0 -66 -11v52h490q80 0 124 -45.5t44 -122.5v-138q0 -90 -84 -165l-490 -439q-59 -53 -59 -137v-346h549q40 0 65 10v-51h-663z" />
<glyph unicode="3" horiz-adv-x="1044" d="M170 0v51q25 -10 59 -10h459q58 0 90.5 34.5t32.5 96.5v410q0 73 -34.5 114t-96.5 41h-348q-30 0 -60 -6v53q30 -6 60 -6h348q62 0 96.5 39.5t34.5 112.5v332q0 62 -32.5 96.5t-90.5 34.5h-457q-29 0 -61 -11v52h522q80 0 124 -46t44 -122v-328q0 -177 -151 -180 q76 -5 113.5 -50t37.5 -139v-401q0 -76 -44 -122t-124 -46h-522z" />
<glyph unicode="4" horiz-adv-x="1044" d="M106 436v41l572 957h57v-957h183q29 0 59 6v-53q-30 6 -59 6h-183v-436h-49v436h-580zM156 477h530v891z" />
<glyph unicode="5" horiz-adv-x="1044" d="M184 0v51q22 -10 62 -10h442q58 0 90.5 34.5t32.5 96.5v434q0 62 -32.5 96.5t-90.5 34.5h-504v697h647v-52q-32 11 -61 11h-537v-615h459q80 0 124 -46t44 -122v-442q0 -76 -44 -122t-124 -46h-508z" />
<glyph unicode="6" horiz-adv-x="1044" d="M184 168v1098q0 76 44 122t124 46h488v-52q-32 11 -62 11h-422q-58 0 -90.5 -34.5t-32.5 -96.5v-484h459q80 0 124 -46t44 -122v-442q0 -76 -44 -122t-124 -46h-340q-80 0 -124 46t-44 122zM233 172q0 -62 32.5 -96.5t90.5 -34.5h336q57 0 88 34t31 97v434 q0 62 -32.5 96.5t-90.5 34.5h-455v-565z" />
<glyph unicode="7" horiz-adv-x="1044" d="M143 1382v52h744v-41l-494 -1393h-51l502 1393h-613q-56 0 -88 -11z" />
<glyph unicode="8" horiz-adv-x="1044" d="M184 168v401q0 94 38 139t114 50q-152 3 -152 180v328q0 76 44 122t124 46h340q80 0 124 -46t44 -122v-328q0 -177 -151 -180q76 -5 113.5 -50t37.5 -139v-401q0 -76 -44 -122t-124 -46h-340q-80 0 -124 46t-44 122zM233 172q0 -62 32.5 -96.5t90.5 -34.5h332 q58 0 90.5 34.5t32.5 96.5v410q0 73 -34.5 114t-96.5 41h-315q-62 0 -97 -41t-35 -114v-410zM233 930q0 -73 35 -112.5t97 -39.5h315q62 0 96.5 39.5t34.5 112.5v332q0 62 -32.5 96.5t-90.5 34.5h-332q-58 0 -90.5 -34.5t-32.5 -96.5v-332z" />
<glyph unicode="9" horiz-adv-x="1044" d="M174 905v361q0 76 44 122t124 46h340q80 0 124 -46t44 -122v-1098q0 -76 -44 -122t-124 -46h-487v51q29 -10 61 -10h422q58 0 90.5 34.5t32.5 96.5v565h-459q-80 0 -124 46t-44 122zM223 909q0 -62 32.5 -96.5t90.5 -34.5h455v484q0 62 -32.5 96.5t-90.5 34.5h-336 q-57 0 -88 -34t-31 -97v-353z" />
<glyph unicode=":" horiz-adv-x="372" d="M156 0v74h65v-74h-65zM156 950v74h65v-74h-65z" />
<glyph unicode=";" horiz-adv-x="372" d="M68 -283l92 228v129h57v-142l-96 -215h-53zM156 950v74h65v-74h-65z" />
<glyph unicode="&#x3c;" horiz-adv-x="917" d="M102 629v41l713 407v-39l-653 -387l653 -391v-39z" />
<glyph unicode="=" horiz-adv-x="917" d="M102 393v41h713v-41h-713zM102 803v41h713v-41h-713z" />
<glyph unicode="&#x3e;" horiz-adv-x="917" d="M102 221v39l654 387l-654 391v39l713 -407v-41z" />
<glyph unicode="?" horiz-adv-x="794" d="M102 1382v52h490q80 0 124 -45.5t44 -122.5v-66q0 -91 -84 -166l-221 -200q-60 -54 -60 -138v-436h-49v445q0 90 84 165l221 201q60 54 60 137v52q0 64 -33 98.5t-92 34.5h-418q-38 0 -66 -11zM338 0v74h65v-74h-65z" />
<glyph unicode="@" horiz-adv-x="1398" d="M184 -45v1098q0 76 44 122t124 46h445q80 0 123 -46t43 -122v-881h-293q-80 0 -124 46t-44 122v330q0 77 44 122.5t124 45.5h245v211q0 63 -32.5 97t-89.5 34h-437q-58 0 -90.5 -34.5t-32.5 -96.5v-1090q0 -62 32.5 -96.5t90.5 -34.5h752q58 0 90.5 34.5t32.5 96.5v895 h49v-899q0 -76 -44 -122t-124 -46h-760q-80 0 -124 46t-44 122zM547 340q0 -62 32.5 -96.5t90.5 -34.5h245v592h-245q-57 0 -90 -34t-33 -95v-332z" />
<glyph unicode="A" horiz-adv-x="1030" d="M43 0l440 1434h76l430 -1434h-55l-129 436h-578l-129 -436h-55zM242 477h551l-275 920z" />
<glyph unicode="B" horiz-adv-x="1155" d="M176 0v1434h590q80 0 124 -46t44 -122v-328q0 -180 -152 -180q76 -5 114 -49t38 -138v-403q0 -76 -44 -122t-124 -46h-590zM225 41h537q58 0 90.5 34.5t32.5 96.5v412q0 73 -34.5 113t-96.5 40h-529v-696zM225 778h529q62 0 96.5 39.5t34.5 112.5v332q0 62 -32.5 96.5 t-90.5 34.5h-537v-615z" />
<glyph unicode="C" horiz-adv-x="999" d="M184 168v1098q0 76 44 122t124 46h566v-52q-27 11 -66 11h-496q-58 0 -90.5 -34.5t-32.5 -96.5v-1090q0 -62 32.5 -96.5t90.5 -34.5h496q41 0 66 10v-51h-566q-80 0 -124 46t-44 122z" />
<glyph unicode="D" horiz-adv-x="1126" d="M184 0v1434h590q80 0 124 -46t44 -122v-1098q0 -76 -44 -122t-124 -46h-590zM233 41h537q58 0 90.5 34.5t32.5 96.5v1090q0 62 -32.5 96.5t-90.5 34.5h-537v-1352z" />
<glyph unicode="E" horiz-adv-x="976" d="M184 0v1434h695v-52q-32 11 -62 11h-584v-615h484q29 0 59 6v-53q-30 6 -59 6h-484v-696h631q35 0 60 10v-51h-740z" />
<glyph unicode="F" horiz-adv-x="903" d="M184 0v1434h695v-52q-32 11 -62 11h-584v-615h484q29 0 59 6v-53q-30 6 -59 6h-484v-737h-49z" />
<glyph unicode="G" horiz-adv-x="1126" d="M184 168v1098q0 76 44 122t124 46h566v-52q-27 11 -66 11h-496q-58 0 -90.5 -34.5t-32.5 -96.5v-1090q0 -62 32.5 -96.5t90.5 -34.5h414q58 0 90.5 34.5t32.5 96.5v565h-283q-29 0 -59 -6v53q30 -6 59 -6h332v-610q0 -76 -44 -122t-124 -46h-422q-80 0 -124 46t-44 122z " />
<glyph unicode="H" horiz-adv-x="1126" d="M184 0v1434h49v-656h660v656h49v-1434h-49v737h-660v-737h-49z" />
<glyph unicode="I" horiz-adv-x="417" d="M184 0v1434h49v-1434h-49z" />
<glyph unicode="J" horiz-adv-x="669" d="M41 0v51q25 -10 59 -10h213q58 0 90.5 34.5t32.5 96.5v1262h49v-1266q0 -76 -44 -122t-124 -46h-276z" />
<glyph unicode="K" horiz-adv-x="1040" d="M184 0v1434h54v-656h229q67 0 117 94l286 562h56l-297 -580q-13 -27 -43 -55t-56 -39q29 -9 59 -39t50 -70l319 -651h-59l-311 641q-26 53 -52 74.5t-69 21.5h-229v-737h-54z" />
<glyph unicode="L" horiz-adv-x="948" d="M184 0v1434h49v-1393h631q35 0 60 10v-51h-740z" />
<glyph unicode="M" horiz-adv-x="1271" d="M184 0v1434h72l379 -953l385 953h67v-1434h-45v1374l-385 -950h-51l-377 950v-1374h-45z" />
<glyph unicode="N" horiz-adv-x="1155" d="M186 0v1434h74l666 -1381v1381h43v-1434h-74l-666 1384v-1384h-43z" />
<glyph unicode="O" horiz-adv-x="1126" d="M184 168v1098q0 76 44 122t124 46h422q80 0 124 -46t44 -122v-1098q0 -76 -44 -122t-124 -46h-422q-80 0 -124 46t-44 122zM233 172q0 -62 32.5 -96.5t90.5 -34.5h414q58 0 90.5 34.5t32.5 96.5v1090q0 62 -32.5 96.5t-90.5 34.5h-414q-58 0 -90.5 -34.5t-32.5 -96.5 v-1090z" />
<glyph unicode="P" horiz-adv-x="1067" d="M184 0v1434h590q80 0 124 -46t44 -122v-361q0 -76 -44 -122t-124 -46h-541v-737h-49zM233 778h537q58 0 90.5 34.5t32.5 96.5v353q0 62 -32.5 96.5t-90.5 34.5h-537v-615z" />
<glyph unicode="Q" horiz-adv-x="1126" d="M184 168v1098q0 76 44 122t124 46h422q80 0 124 -46t44 -122v-1098q0 -76 -44 -122t-124 -46h-88l148 -410h-52l-147 410h-283q-80 0 -124 46t-44 122zM233 172q0 -62 32.5 -96.5t90.5 -34.5h262l-96 268h51l97 -268h100q58 0 90.5 34.5t32.5 96.5v1090q0 62 -32.5 96.5 t-90.5 34.5h-414q-58 0 -90.5 -34.5t-32.5 -96.5v-1090z" />
<glyph unicode="R" horiz-adv-x="1161" d="M184 0v1434h590q80 0 124 -46t44 -122v-361q0 -76 -44 -122t-124 -46h-24l268 -737h-53l-263 737h-469v-737h-49zM233 778h537q58 0 90.5 34.5t32.5 96.5v353q0 62 -32.5 96.5t-90.5 34.5h-537v-615z" />
<glyph unicode="S" horiz-adv-x="1046" d="M143 0v51q25 -10 66 -10h496q59 0 91.5 34.5t32.5 98.5v197q0 87 -59 137l-530 434q-84 69 -84 170v154q0 77 44 122.5t124 45.5h510v-52q-28 11 -66 11h-438q-59 0 -92 -34.5t-33 -98.5v-140q0 -90 59 -137l531 -434q84 -69 84 -170v-211q0 -77 -44 -122.5t-124 -45.5 h-568z" />
<glyph unicode="T" horiz-adv-x="954" d="M61 1382v52h832v-52q-32 11 -62 11h-329v-1393h-49v1393h-330q-30 0 -62 -11z" />
<glyph unicode="U" horiz-adv-x="1126" d="M184 168v1266h49v-1262q0 -62 32.5 -96.5t90.5 -34.5h414q58 0 90.5 34.5t32.5 96.5v1262h49v-1266q0 -76 -44 -122t-124 -46h-422q-80 0 -124 46t-44 122z" />
<glyph unicode="V" horiz-adv-x="1030" d="M43 1434h55l416 -1397l420 1397h55l-440 -1434h-76z" />
<glyph unicode="W" horiz-adv-x="1579" d="M66 1434h47l348 -1397l307 1397h47l297 -1397l354 1397h45l-368 -1434h-66l-289 1358l-296 -1358h-66z" />
<glyph unicode="X" horiz-adv-x="1112" d="M37 0l487 788l-399 646h63l367 -611l371 611h59l-399 -641l491 -793h-61l-459 752l-461 -752h-59z" />
<glyph unicode="Y" horiz-adv-x="1081" d="M20 1434h62l461 -752l458 752h60l-494 -799v-635h-49v635z" />
<glyph unicode="Z" horiz-adv-x="1038" d="M106 0v41l775 1352h-693q-38 0 -65 -11v52h811v-41l-774 -1352h692q41 0 66 10v-51h-812z" />
<glyph unicode="[" horiz-adv-x="690" d="M184 -410v1844h383v-52q-32 11 -61 11h-273v-1762h275q32 0 59 11v-52h-383z" />
<glyph unicode="\" horiz-adv-x="819" d="M0 1434h61l758 -1434h-61z" />
<glyph unicode="]" horiz-adv-x="585" d="M109 -358q28 -11 59 -11h274v1762h-272q-29 0 -61 -11v52h383v-1844h-383v52z" />
<glyph unicode="^" horiz-adv-x="686" d="M20 911l308 523h30l310 -523h-41l-285 461l-281 -461h-41z" />
<glyph unicode="_" horiz-adv-x="1472" d="M102 -186h1268v-50h-1268v50z" />
<glyph unicode="`" horiz-adv-x="589" d="M164 1434h61l201 -260h-41z" />
<glyph unicode="a" horiz-adv-x="944" d="M152 168v293q0 77 43.5 122.5t123.5 45.5h410v227q0 62 -32.5 96.5t-88.5 34.5h-372q-41 0 -66 -10v47h436q81 0 124.5 -46t43.5 -122v-856h-455q-80 0 -123.5 46t-43.5 122zM197 168q0 -63 32.5 -97t89.5 -34h410v555h-410q-57 0 -89.5 -34t-32.5 -95v-295z" />
<glyph unicode="b" d="M172 0v1434h45v-410h410q80 0 124 -46t44 -122v-688q0 -76 -44 -122t-124 -46h-455zM217 37h410q58 0 90.5 34.5t32.5 96.5v688q0 62 -32.5 96.5t-90.5 34.5h-410v-950z" />
<glyph unicode="c" horiz-adv-x="827" d="M172 168v688q0 76 44 122t124 46h403v-47q-25 10 -65 10h-338q-58 0 -90.5 -34.5t-32.5 -96.5v-688q0 -62 32.5 -96.5t90.5 -34.5h338q40 0 65 10v-47h-403q-80 0 -124 46t-44 122z" />
<glyph unicode="d" d="M172 168v688q0 76 44 122t124 46h410v410h45v-1434h-455q-80 0 -124 46t-44 122zM217 168q0 -62 32.5 -96.5t90.5 -34.5h410v950h-410q-58 0 -90.5 -34.5t-32.5 -96.5v-688z" />
<glyph unicode="e" horiz-adv-x="921" d="M172 168v688q0 76 44 122t124 46h266q81 0 124.5 -46t43.5 -122v-264h-557v-424q0 -62 32.5 -96.5t90.5 -34.5h338q40 0 65 10v-47h-403q-80 0 -124 46t-44 122zM217 629h512v227q0 62 -32.5 96.5t-88.5 34.5h-268q-58 0 -90.5 -34.5t-32.5 -96.5v-227z" />
<glyph unicode="f" horiz-adv-x="520" d="M172 0v1266q0 76 44 122t124 46h166v-48q-27 11 -66 11h-100q-58 0 -90.5 -34.5t-32.5 -96.5v-242h289v-37h-289v-987h-45z" />
<glyph unicode="g" d="M172 168v688q0 76 44 122t124 46h455v-1266q0 -76 -44 -122t-124 -46h-404v48q27 -11 66 -11h338q58 0 90.5 34.5t32.5 96.5v242h-410q-80 0 -124 46t-44 122zM217 168q0 -62 32.5 -96.5t90.5 -34.5h410v950h-410q-58 0 -90.5 -34.5t-32.5 -96.5v-688z" />
<glyph unicode="h" d="M172 0v1434h45v-410h410q80 0 124 -46t44 -122v-856h-45v856q0 62 -32.5 96.5t-90.5 34.5h-410v-987h-45z" />
<glyph unicode="i" horiz-adv-x="389" d="M172 0v1024h45v-1024h-45zM172 1206v70h45v-70h-45z" />
<glyph unicode="j" horiz-adv-x="389" d="M98 -410q74 169 74 410v1024h45v-1024q0 -238 -67 -410h-52zM172 1206v70h45v-70h-45z" />
<glyph unicode="k" horiz-adv-x="882" d="M172 0v1434h45v-848h213q58 0 107 90l182 348h53l-192 -367q-16 -31 -40.5 -56t-50.5 -34q25 -10 50 -37t39 -57l217 -473h-52l-206 455q-45 94 -105 94h-215v-549h-45z" />
<glyph unicode="l" horiz-adv-x="389" d="M172 0v1434h45v-1434h-45z" />
<glyph unicode="m" horiz-adv-x="1384" d="M172 0v1024h375q64 0 101 -30t46 -70q8 39 46.5 69.5t97.5 30.5h206q80 0 124 -46t44 -122v-856h-45v856q0 62 -32.5 96.5t-90.5 34.5h-206q-57 0 -90 -35t-33 -96v-856h-45v856q0 62 -33.5 96.5t-89.5 34.5h-330v-987h-45z" />
<glyph unicode="n" d="M172 0v1024h455q80 0 124 -46t44 -122v-856h-45v856q0 62 -32.5 96.5t-90.5 34.5h-410v-987h-45z" />
<glyph unicode="o" d="M172 168v688q0 76 44 122t124 46h287q80 0 124 -46t44 -122v-688q0 -76 -44 -122t-124 -46h-287q-80 0 -124 46t-44 122zM217 168q0 -62 32.5 -96.5t90.5 -34.5h287q58 0 90.5 34.5t32.5 96.5v688q0 62 -32.5 96.5t-90.5 34.5h-287q-58 0 -90.5 -34.5t-32.5 -96.5v-688z " />
<glyph unicode="p" d="M172 -410v1434h455q80 0 124 -46t44 -122v-688q0 -76 -44 -122t-124 -46h-410v-410h-45zM217 37h410q58 0 90.5 34.5t32.5 96.5v688q0 62 -32.5 96.5t-90.5 34.5h-410v-950z" />
<glyph unicode="q" d="M172 168v688q0 76 44 122t124 46h455v-1434h-45v410h-410q-80 0 -124 46t-44 122zM217 168q0 -62 32.5 -96.5t90.5 -34.5h410v950h-410q-58 0 -90.5 -34.5t-32.5 -96.5v-688z" />
<glyph unicode="r" horiz-adv-x="595" d="M172 0v1024h39v-90q7 37 39.5 63.5t89.5 26.5h215v-47q-25 10 -66 10h-145q-69 0 -98 -41.5t-29 -122.5v-823h-45z" />
<glyph unicode="s" horiz-adv-x="825" d="M127 0v47q25 -10 66 -10h339q57 0 89 34t32 97v59q0 63 -18 99t-68 71l-315 226q-65 46 -95 90t-30 100v43q0 76 44 122t124 46h383v-47q-25 10 -66 10h-317q-58 0 -90.5 -34.5t-32.5 -96.5v-35q0 -46 22.5 -82t77.5 -75l318 -226q58 -40 83 -84t25 -118v-68 q0 -76 -44 -122t-124 -46h-403z" />
<glyph unicode="t" horiz-adv-x="589" d="M172 168v1065l45 45v-254h289v-37h-289v-819q0 -62 32.5 -96.5t90.5 -34.5h100q41 0 66 10v-47h-166q-80 0 -124 46t-44 122z" />
<glyph unicode="u" d="M172 168v856h45v-856q0 -62 32.5 -96.5t90.5 -34.5h410v987h45v-1024h-455q-80 0 -124 46t-44 122z" />
<glyph unicode="v" horiz-adv-x="811" d="M45 1024h51l310 -987l311 987h51l-336 -1024h-57z" />
<glyph unicode="w" horiz-adv-x="1249" d="M68 1024h49l264 -979l219 979h55l215 -979l265 979h49l-289 -1024h-55l-213 965l-219 -965h-60z" />
<glyph unicode="x" horiz-adv-x="862" d="M68 1024h55l307 -481l307 481h56l-338 -512l340 -512h-56l-307 481l-307 -481h-55l338 512z" />
<glyph unicode="y" horiz-adv-x="811" d="M45 1024h51l312 -987l309 987h51l-463 -1434h-51l139 410h-18z" />
<glyph unicode="z" horiz-adv-x="823" d="M92 0v45l588 942h-506q-40 0 -65 -10v47h622v-37l-592 -950h510q41 0 66 10v-47h-623z" />
<glyph unicode="{" horiz-adv-x="710" d="M82 524v45q58 0 90.5 34.5t32.5 96.5v396q0 126 33.5 197.5t116.5 106t233 34.5v-41q-104 0 -169.5 -16t-102 -55t-49.5 -91t-13 -135v-400q0 -50 -28.5 -92t-69.5 -57q41 -15 69.5 -57.5t28.5 -92.5v-469q0 -83 13.5 -135.5t50 -90.5t102 -54.5t168.5 -16.5v-41 q-149 0 -232 34.5t-117 106.5t-34 199v463q0 62 -32.5 96.5t-90.5 34.5z" />
<glyph unicode="|" horiz-adv-x="372" d="M164 -410v1844h45v-1844h-45z" />
<glyph unicode="}" horiz-adv-x="710" d="M123 -369q103 0 168.5 16.5t102 54.5t50 90.5t13.5 135.5v469q0 50 28.5 92.5t69.5 57.5q-41 15 -69.5 57t-28.5 92v400q0 83 -13 135t-49.5 91t-102 55t-169.5 16v41q150 0 233 -34.5t116.5 -106t33.5 -197.5v-396q0 -62 32.5 -96.5t90.5 -34.5v-45q-58 0 -90.5 -34.5 t-32.5 -96.5v-463q0 -127 -34 -199t-117 -106.5t-232 -34.5v41z" />
<glyph unicode="~" horiz-adv-x="952" d="M102 915v52q0 215 170 215q45 0 91 -24t85 -58t77 -68t80.5 -58t82.5 -24q47 0 73.5 15t43 65.5t16.5 145.5h29v-50q0 -119 -39.5 -168t-120.5 -49q-44 0 -90 23.5t-85.5 57.5t-78 68t-81 57.5t-81.5 23.5q-74 0 -107.5 -46.5t-33.5 -177.5h-31z" />
<glyph unicode="&#xa1;" horiz-adv-x="372" d="M156 950v74h65v-74h-65zM166 -410v1174h45v-1174h-45z" />
<glyph unicode="&#xa2;" horiz-adv-x="765" d="M104 375v688q0 76 44 122t124 46h127v203h45v-203h232v-47q-25 10 -66 10h-338q-57 0 -89.5 -34t-32.5 -97v-688q0 -63 32.5 -97t89.5 -34h338q41 0 66 10v-47h-232v-207h-45v207h-127q-80 0 -124 46t-44 122z" />
<glyph unicode="&#xa3;" horiz-adv-x="960" d="M100 692v41h84v533q0 76 44 122t124 46h238v-52q-28 11 -66 11h-168q-58 0 -90.5 -34.5t-32.5 -96.5v-529h332v-41h-332v-651h619q41 0 66 10v-51h-734v692h-84z" />
<glyph unicode="&#xa4;" d="M61 0l152 287q-41 47 -41 119v606q0 81 47 125l-158 297h54l143 -271q43 17 82 17h287q45 0 92 -21l145 275h54l-162 -306q39 -45 39 -116v-606q0 -67 -35 -111l158 -295h-54l-139 262q-41 -24 -98 -24h-287q-52 0 -88 20l-137 -258h-54zM217 406q0 -63 33 -97.5 t90 -34.5h287q57 0 90 34.5t33 97.5v606q0 62 -32.5 96.5t-90.5 34.5h-287q-58 0 -90.5 -34.5t-32.5 -96.5v-606z" />
<glyph unicode="&#xa5;" horiz-adv-x="1081" d="M20 1434h62l461 -752l458 752h60l-494 -799v-121h172v-41h-172v-473h-49v473h-180v41h180v121z" />
<glyph unicode="&#xa7;" horiz-adv-x="825" d="M127 -362q28 -11 66 -11h339q57 0 89 34t32 97v127q0 63 -18 99t-68 71l-315 226q-65 46 -95 90t-30 100v795q0 76 44 122t124 46h383v-48q-27 11 -66 11h-317q-58 0 -90.5 -34.5t-32.5 -96.5v-70q0 -46 22.5 -82.5t77.5 -75.5l318 -225q58 -40 83 -84.5t25 -118.5v-852 q0 -76 -44 -122t-124 -46h-403v48zM172 477q0 -50 22.5 -88t77.5 -76l314 -221q43 -28 67 -74v582q0 61 -18.5 103.5t-65.5 76.5l-323 226q-60 42 -74 90v-619z" />
<glyph unicode="&#xa8;" horiz-adv-x="602" d="M164 1260v69h45v-69h-45zM393 1260v69h45v-69h-45z" />
<glyph unicode="&#xa9;" horiz-adv-x="1327" d="M184 168v1098q0 76 44 122t124 46h623q80 0 124 -46t44 -122v-1098q0 -76 -44 -122t-124 -46h-623q-80 0 -124 46t-44 122zM229 168q0 -62 32.5 -96.5t90.5 -34.5h623q58 0 90.5 34.5t32.5 96.5v1098q0 62 -32.5 96.5t-90.5 34.5h-623q-58 0 -90.5 -34.5t-32.5 -96.5 v-1098zM379 326v788q0 63 36 101t101 38h451v-43q-21 9 -54 9h-391q-46 0 -73 -29.5t-27 -81.5v-776q0 -51 27 -79t73 -28h391q40 0 54 8v-43h-455q-64 0 -98.5 37t-34.5 99z" />
<glyph unicode="&#xaa;" horiz-adv-x="944" d="M152 0v41h622v-41h-622zM152 578v292q0 77 43.5 122.5t123.5 45.5h410v228q0 62 -32.5 96.5t-88.5 34.5h-372q-38 0 -66 -11v48h436q81 0 124.5 -46t43.5 -122v-856h-455q-80 0 -123.5 46t-43.5 122zM197 578q0 -63 32.5 -97.5t89.5 -34.5h410v555h-410q-57 0 -89.5 -34 t-32.5 -95v-294z" />
<glyph unicode="&#xab;" horiz-adv-x="1130" d="M82 586v41l522 407v-55l-461 -371l461 -375v-55zM526 586v41l523 407v-55l-461 -371l461 -375v-55z" />
<glyph unicode="&#xac;" horiz-adv-x="917" d="M102 580v49h713v-629h-51v580h-662z" />
<glyph unicode="&#xad;" horiz-adv-x="606" d="M102 578v53h402v-53h-402z" />
<glyph unicode="&#xae;" horiz-adv-x="1327" d="M184 168v1098q0 76 44 122t124 46h623q80 0 124 -46t44 -122v-1098q0 -76 -44 -122t-124 -46h-623q-80 0 -124 46t-44 122zM229 168q0 -62 32.5 -96.5t90.5 -34.5h623q58 0 90.5 34.5t32.5 96.5v1098q0 62 -32.5 96.5t-90.5 34.5h-623q-58 0 -90.5 -34.5t-32.5 -96.5 v-1098zM379 190v1063h436q64 0 98.5 -38t34.5 -101v-252q0 -63 -34.5 -103t-98.5 -40h-20l219 -529h-49l-213 529h-330v-529h-43zM422 754h385q46 0 72 28t26 80v250q0 51 -26 79t-72 28h-385v-465z" />
<glyph unicode="&#xaf;" horiz-adv-x="729" d="M164 1257v43h401v-43h-401z" />
<glyph unicode="&#xb0;" horiz-adv-x="649" d="M125 934v332q0 76 44 122t124 46h67q80 0 124 -46t44 -122v-332q0 -76 -44 -122t-124 -46h-67q-80 0 -124 46t-44 122zM170 934q0 -62 32.5 -96.5t90.5 -34.5h67q58 0 90.5 34.5t32.5 96.5v332q0 62 -32.5 96.5t-90.5 34.5h-67q-58 0 -90.5 -34.5t-32.5 -96.5v-332z" />
<glyph unicode="&#xb1;" horiz-adv-x="917" d="M102 0v49h713v-49h-713zM102 584v41h336v336h41v-336h336v-41h-336v-336h-41v336h-336z" />
<glyph unicode="&#xb4;" horiz-adv-x="589" d="M164 1174l201 260h61l-221 -260h-41z" />
<glyph unicode="&#xb5;" d="M172 -410v1434h45v-856q0 -62 32.5 -96.5t90.5 -34.5h410v987h45v-1024h-455q-96 0 -131 74l8 -484h-45z" />
<glyph unicode="&#xb6;" horiz-adv-x="1067" d="M184 905v361q0 76 44 122t124 46h590v-1434h-49v737h-541q-80 0 -124 46t-44 122z" />
<glyph unicode="&#xb7;" horiz-adv-x="350" d="M131 555v96h90v-96h-90z" />
<glyph unicode="&#xb8;" horiz-adv-x="651" d="M150 -410l12 37h192q58 0 85.5 26.5t27.5 88.5v22q0 62 -27.5 88.5t-85.5 26.5h-106l47 135h43l-39 -106h55q81 0 117.5 -35t36.5 -109v-22q0 -152 -154 -152h-204z" />
<glyph unicode="&#xba;" d="M172 0v41h623v-41h-623zM172 578v688q0 76 44 122t124 46h287q80 0 124 -46t44 -122v-688q0 -76 -44 -122t-124 -46h-287q-80 0 -124 46t-44 122zM217 578q0 -63 33 -97.5t90 -34.5h287q57 0 90 34.5t33 97.5v688q0 62 -32.5 96.5t-90.5 34.5h-287q-58 0 -90.5 -34.5 t-32.5 -96.5v-688z" />
<glyph unicode="&#xbb;" horiz-adv-x="1130" d="M82 178v55l461 371l-461 375v55l522 -407v-41zM526 178v55l461 371l-461 375v55l523 -407v-41z" />
<glyph unicode="&#xbf;" horiz-adv-x="794" d="M104 -176q0 91 84 166l222 200q59 53 59 138v436h49v-445q0 -90 -84 -165l-221 -201q-59 -53 -59 -137v-52q0 -64 33 -98.5t92 -34.5h417q38 0 66 11v-52h-490q-80 0 -124 45.5t-44 122.5v66zM461 950v74h65v-74h-65z" />
<glyph unicode="&#xc0;" horiz-adv-x="1030" d="M43 0l440 1434h76l430 -1434h-55l-129 436h-578l-129 -436h-55zM242 477h551l-275 920zM315 1579v43h402v-43h-402z" />
<glyph unicode="&#xc1;" horiz-adv-x="1030" d="M43 0l440 1434h76l430 -1434h-55l-129 436h-578l-129 -436h-55zM242 477h551l-275 920zM322 1649v41h30v-41q0 -60 31.5 -85.5t91.5 -25.5h109q60 0 91.5 25.5t31.5 85.5v41h30v-41q0 -75 -36.5 -111.5t-116.5 -36.5h-109q-80 0 -116.5 36.5t-36.5 111.5z" />
<glyph unicode="&#xc2;" horiz-adv-x="1030" d="M43 0l440 1434h76l430 -1434h-55l-129 436h-578l-129 -436h-55zM242 477h551l-275 920zM379 1573v55h45v-55h-45zM608 1573v55h45v-55h-45z" />
<glyph unicode="&#xc3;" horiz-adv-x="827" d="M172 168v688q0 76 44 122t124 46h403v-47q-25 10 -65 10h-338q-58 0 -90.5 -34.5t-32.5 -96.5v-688q0 -62 32.5 -96.5t90.5 -34.5h338q40 0 65 10v-47h-403q-80 0 -124 46t-44 122zM426 1174l201 260h61l-221 -260h-41z" />
<glyph unicode="&#xc4;" horiz-adv-x="1030" d="M43 0l440 1434h76l430 -1434h-55l-129 436h-578l-129 -436h-55zM242 477h551l-275 920zM324 1690h61l201 -189h-41z" />
<glyph unicode="&#xc5;" horiz-adv-x="1030" d="M43 0l440 1434h76l430 -1434h-55l-129 436h-578l-129 -436h-55zM215 1501v37q0 156 150 156q34 0 69 -17t64.5 -41t58.5 -48t61.5 -41t63.5 -17q38 0 58 10t33 46t13 104h33v-35q0 -86 -36.5 -122t-106.5 -36q-41 0 -86 25.5t-77.5 55.5t-75 55.5t-79.5 25.5 q-58 0 -84 -32t-26 -126h-33zM242 477h551l-275 920z" />
<glyph unicode="&#xc6;" horiz-adv-x="1626" d="M-74 0l877 1434h725v-52q-32 11 -62 11h-583v-615h483q29 0 59 6v-53q-30 6 -59 6h-483v-696h630q35 0 60 10v-51h-739v436h-584l-262 -436h-62zM276 477h558v924z" />
<glyph unicode="&#xc7;" horiz-adv-x="999" d="M184 168v1098q0 76 44 122t124 46h566v-52q-27 11 -66 11h-496q-58 0 -90.5 -34.5t-32.5 -96.5v-1090q0 -62 32.5 -96.5t90.5 -34.5h496q41 0 66 10v-51h-566q-80 0 -124 46t-44 122zM358 1501l201 189h39l201 -189h-41l-180 150l-179 -150h-41z" />
<glyph unicode="&#xc8;" horiz-adv-x="976" d="M184 0v1434h695v-52q-32 11 -62 11h-584v-615h484q29 0 59 6v-53q-30 6 -59 6h-484v-696h631q35 0 60 10v-51h-740zM391 1690h62l200 -189h-41z" />
<glyph unicode="&#xc9;" horiz-adv-x="976" d="M184 0v1434h695v-52q-32 11 -62 11h-584v-615h484q29 0 59 6v-53q-30 6 -59 6h-484v-696h631q35 0 60 10v-51h-740zM465 1501l207 189h61l-221 -189h-47z" />
<glyph unicode="&#xca;" horiz-adv-x="976" d="M184 0v1434h695v-52q-32 11 -62 11h-584v-615h484q29 0 59 6v-53q-30 6 -59 6h-484v-696h631q35 0 60 10v-51h-740zM332 1501l200 189h39l201 -189h-41l-180 150l-178 -150h-41z" />
<glyph unicode="&#xcb;" horiz-adv-x="976" d="M184 0v1434h695v-52q-32 11 -62 11h-584v-615h484q29 0 59 6v-53q-30 6 -59 6h-484v-696h631q35 0 60 10v-51h-740zM412 1573v55h45v-55h-45zM641 1573v55h45v-55h-45z" />
<glyph unicode="&#xcc;" horiz-adv-x="417" d="M-12 1690h61l201 -189h-41zM184 0v1434h49v-1434h-49z" />
<glyph unicode="&#xcd;" horiz-adv-x="417" d="M156 1501l206 189h62l-221 -189h-47zM184 0v1434h49v-1434h-49z" />
<glyph unicode="&#xce;" horiz-adv-x="417" d="M-10 1501l200 189h39l201 -189h-41l-180 150l-178 -150h-41zM184 0v1434h49v-1434h-49z" />
<glyph unicode="&#xcf;" horiz-adv-x="417" d="M72 1573v55h45v-55h-45zM184 0v1434h49v-1434h-49zM301 1573v55h45v-55h-45z" />
<glyph unicode="&#xd1;" horiz-adv-x="1155" d="M186 0v1434h74l666 -1381v1381h43v-1434h-74l-666 1384v-1384h-43zM303 1501v37q0 156 150 156q34 0 69 -17t64.5 -41t58.5 -48t61.5 -41t63.5 -17q38 0 58 10t33 46t13 104h33v-35q0 -86 -36.5 -122t-106.5 -36q-41 0 -86 25.5t-77.5 55.5t-75 55.5t-79.5 25.5 q-58 0 -84 -32t-26 -126h-33z" />
<glyph unicode="&#xd2;" horiz-adv-x="1126" d="M184 168v1098q0 76 44 122t124 46h422q80 0 124 -46t44 -122v-1098q0 -76 -44 -122t-124 -46h-422q-80 0 -124 46t-44 122zM233 172q0 -62 32.5 -96.5t90.5 -34.5h414q58 0 90.5 34.5t32.5 96.5v1090q0 62 -32.5 96.5t-90.5 34.5h-414q-58 0 -90.5 -34.5t-32.5 -96.5 v-1090zM403 1690h62l201 -189h-41z" />
<glyph unicode="&#xd3;" horiz-adv-x="1126" d="M184 168v1098q0 76 44 122t124 46h422q80 0 124 -46t44 -122v-1098q0 -76 -44 -122t-124 -46h-422q-80 0 -124 46t-44 122zM233 172q0 -62 32.5 -96.5t90.5 -34.5h414q58 0 90.5 34.5t32.5 96.5v1090q0 62 -32.5 96.5t-90.5 34.5h-414q-58 0 -90.5 -34.5t-32.5 -96.5 v-1090zM483 1501l207 189h62l-222 -189h-47z" />
<glyph unicode="&#xd4;" horiz-adv-x="1126" d="M184 168v1098q0 76 44 122t124 46h422q80 0 124 -46t44 -122v-1098q0 -76 -44 -122t-124 -46h-422q-80 0 -124 46t-44 122zM233 172q0 -62 32.5 -96.5t90.5 -34.5h414q58 0 90.5 34.5t32.5 96.5v1090q0 62 -32.5 96.5t-90.5 34.5h-414q-58 0 -90.5 -34.5t-32.5 -96.5 v-1090zM344 1501l201 189h39l200 -189h-41l-180 150l-178 -150h-41z" />
<glyph unicode="&#xd5;" horiz-adv-x="1126" d="M184 168v1098q0 76 44 122t124 46h422q80 0 124 -46t44 -122v-1098q0 -76 -44 -122t-124 -46h-422q-80 0 -124 46t-44 122zM233 172q0 -62 32.5 -96.5t90.5 -34.5h414q58 0 90.5 34.5t32.5 96.5v1090q0 62 -32.5 96.5t-90.5 34.5h-414q-58 0 -90.5 -34.5t-32.5 -96.5 v-1090zM262 1501v37q0 156 150 156q34 0 69 -17t64.5 -41t58.5 -48t61.5 -41t63.5 -17q38 0 58.5 10t33.5 46t13 104h32v-35q0 -86 -36.5 -122t-106.5 -36q-41 0 -85.5 25.5t-77.5 55.5t-75 55.5t-79 25.5q-59 0 -85 -32t-26 -126h-33z" />
<glyph unicode="&#xd6;" horiz-adv-x="1126" d="M184 168v1098q0 76 44 122t124 46h422q80 0 124 -46t44 -122v-1098q0 -76 -44 -122t-124 -46h-422q-80 0 -124 46t-44 122zM233 172q0 -62 32.5 -96.5t90.5 -34.5h414q58 0 90.5 34.5t32.5 96.5v1090q0 62 -32.5 96.5t-90.5 34.5h-414q-58 0 -90.5 -34.5t-32.5 -96.5 v-1090zM426 1573v55h45v-55h-45zM655 1573v55h45v-55h-45z" />
<glyph unicode="&#xd8;" horiz-adv-x="1126" d="M4 0l180 242v1024q0 76 44 122t124 46h422q80 0 124 -46t44 -120l125 166h57l-182 -244v-1022q0 -76 -44 -122t-124 -46h-422q-78 0 -122 45t-46 119l-123 -164h-57zM233 172q0 -62 32.5 -96.5t90.5 -34.5h414q58 0 90.5 34.5t32.5 96.5v950l-660 -893v-57zM233 307 l660 893v62q0 62 -32.5 96.5t-90.5 34.5h-414q-58 0 -90.5 -34.5t-32.5 -96.5v-955z" />
<glyph unicode="&#xd9;" horiz-adv-x="1126" d="M184 168v1266h49v-1262q0 -62 32.5 -96.5t90.5 -34.5h414q58 0 90.5 34.5t32.5 96.5v1262h49v-1266q0 -76 -44 -122t-124 -46h-422q-80 0 -124 46t-44 122zM406 1690h61l201 -189h-41z" />
<glyph unicode="&#xda;" horiz-adv-x="1126" d="M184 168v1266h49v-1262q0 -62 32.5 -96.5t90.5 -34.5h414q58 0 90.5 34.5t32.5 96.5v1262h49v-1266q0 -76 -44 -122t-124 -46h-422q-80 0 -124 46t-44 122zM483 1501l207 189h62l-222 -189h-47z" />
<glyph unicode="&#xdb;" horiz-adv-x="1126" d="M184 168v1266h49v-1262q0 -62 32.5 -96.5t90.5 -34.5h414q58 0 90.5 34.5t32.5 96.5v1262h49v-1266q0 -76 -44 -122t-124 -46h-422q-80 0 -124 46t-44 122zM344 1501l201 189h39l200 -189h-41l-180 150l-178 -150h-41z" />
<glyph unicode="&#xdc;" horiz-adv-x="1126" d="M184 168v1266h49v-1262q0 -62 32.5 -96.5t90.5 -34.5h414q58 0 90.5 34.5t32.5 96.5v1262h49v-1266q0 -76 -44 -122t-124 -46h-422q-80 0 -124 46t-44 122zM426 1573v55h45v-55h-45zM655 1573v55h45v-55h-45z" />
<glyph unicode="&#xdd;" horiz-adv-x="1081" d="M20 1434h62l461 -752l458 752h60l-494 -799v-635h-49v635zM471 1501l207 189h61l-221 -189h-47z" />
<glyph unicode="&#xdf;" horiz-adv-x="917" d="M172 0v1266q0 76 44 122t124 46h289q80 0 124 -46t44 -122v-72q0 -73 -25.5 -116.5t-83.5 -86.5l-110 -84q-54 -40 -75.5 -76.5t-21.5 -89.5q0 -47 21 -81.5t76 -73.5l110 -80q59 -41 84 -86t25 -119v-133q0 -76 -44 -122t-124 -46h-236v47q25 -10 66 -10h172q57 0 89 34 t32 97v133q0 62 -18 96t-68 70l-109 80q-64 46 -92.5 91.5t-28.5 102.5q0 61 28.5 105.5t92.5 93.5l109 84q50 37 68 72.5t18 97.5v72q0 63 -32 97t-89 34h-291q-58 0 -90.5 -34.5t-32.5 -96.5v-1266h-45z" />
<glyph unicode="&#xe0;" horiz-adv-x="944" d="M152 168v293q0 77 43.5 122.5t123.5 45.5h410v227q0 62 -32.5 96.5t-88.5 34.5h-372q-41 0 -66 -10v47h436q81 0 124.5 -46t43.5 -122v-856h-455q-80 0 -123.5 46t-43.5 122zM197 168q0 -63 32.5 -97t89.5 -34h410v555h-410q-57 0 -89.5 -34t-32.5 -95v-295zM262 1257v43 h402v-43h-402z" />
<glyph unicode="&#xe1;" horiz-adv-x="944" d="M152 168v293q0 77 43.5 122.5t123.5 45.5h410v227q0 62 -32.5 96.5t-88.5 34.5h-372q-41 0 -66 -10v47h436q81 0 124.5 -46t43.5 -122v-856h-455q-80 0 -123.5 46t-43.5 122zM197 168q0 -63 32.5 -97t89.5 -34h410v555h-410q-57 0 -89.5 -34t-32.5 -95v-295zM260 1372v62 h31v-62q0 -62 32.5 -96.5t90.5 -34.5h108q58 0 90.5 34.5t32.5 96.5v62h31v-62q0 -78 -38 -123t-116 -45h-108q-78 0 -116 45t-38 123z" />
<glyph unicode="&#xe2;" horiz-adv-x="944" d="M152 168v293q0 77 43.5 122.5t123.5 45.5h410v227q0 62 -32.5 96.5t-88.5 34.5h-372q-41 0 -66 -10v47h436q81 0 124.5 -46t43.5 -122v-856h-455q-80 0 -123.5 46t-43.5 122zM197 168q0 -63 32.5 -97t89.5 -34h410v555h-410q-57 0 -89.5 -34t-32.5 -95v-295zM326 1260v69 h45v-69h-45zM555 1260v69h45v-69h-45z" />
<glyph unicode="&#xe3;" horiz-adv-x="1030" d="M43 0l440 1434h76l430 -1434h-55l-129 436h-578l-129 -436h-55zM242 477h551l-275 920zM446 1501l207 189h62l-221 -189h-48z" />
<glyph unicode="&#xe4;" horiz-adv-x="944" d="M152 168v293q0 77 43.5 122.5t123.5 45.5h410v227q0 62 -32.5 96.5t-88.5 34.5h-372q-41 0 -66 -10v47h436q81 0 124.5 -46t43.5 -122v-856h-455q-80 0 -123.5 46t-43.5 122zM197 168q0 -63 32.5 -97t89.5 -34h410v555h-410q-57 0 -89.5 -34t-32.5 -95v-295zM291 1434h61 l201 -260h-41z" />
<glyph unicode="&#xe5;" horiz-adv-x="944" d="M152 168v293q0 77 43.5 122.5t123.5 45.5h410v227q0 62 -32.5 96.5t-88.5 34.5h-372q-41 0 -66 -10v47h436q81 0 124.5 -46t43.5 -122v-856h-455q-80 0 -123.5 46t-43.5 122zM162 1174v51q0 215 149 215q34 0 69.5 -24t65 -58t58 -68t61.5 -58t64 -24q37 0 58 15 t33.5 65.5t12.5 145.5h33v-50q0 -119 -36.5 -168t-106.5 -49q-34 0 -69 23.5t-65 57.5t-59 68t-62 57.5t-63 23.5q-58 0 -84 -46t-26 -177h-33zM197 168q0 -63 32.5 -97t89.5 -34h410v555h-410q-57 0 -89.5 -34t-32.5 -95v-295z" />
<glyph unicode="&#xe6;" horiz-adv-x="1478" d="M152 168v293q0 77 43.5 122.5t123.5 45.5h410v227q0 62 -32.5 96.5t-88.5 34.5h-372q-41 0 -66 -10v47h436q51 0 89.5 -23.5t56.5 -62.5q18 39 56 62.5t89 23.5h266q81 0 124.5 -46t43.5 -122v-264h-557v-424q0 -62 32.5 -96.5t90.5 -34.5h338q40 0 65 10v-47h-403 q-108 0 -145 86q-37 -86 -146 -86h-287q-80 0 -123.5 46t-43.5 122zM197 168q0 -63 32.5 -97t89.5 -34h287q58 0 90.5 34.5t32.5 96.5v424h-410q-57 0 -89.5 -34t-32.5 -95v-295zM774 629h512v227q0 62 -32.5 96.5t-88.5 34.5h-268q-58 0 -90.5 -34.5t-32.5 -96.5v-227z" />
<glyph unicode="&#xe7;" horiz-adv-x="827" d="M172 168v688q0 76 44 122t124 46h403v-47q-25 10 -65 10h-338q-58 0 -90.5 -34.5t-32.5 -96.5v-688q0 -62 32.5 -96.5t90.5 -34.5h338q40 0 65 10v-47h-403q-80 0 -124 46t-44 122zM272 1174l201 260h39l201 -260h-41l-180 215l-179 -215h-41z" />
<glyph unicode="&#xe8;" horiz-adv-x="921" d="M172 168v688q0 76 44 122t124 46h266q81 0 124.5 -46t43.5 -122v-264h-557v-424q0 -62 32.5 -96.5t90.5 -34.5h338q40 0 65 10v-47h-403q-80 0 -124 46t-44 122zM217 629h512v227q0 62 -32.5 96.5t-88.5 34.5h-268q-58 0 -90.5 -34.5t-32.5 -96.5v-227zM307 1434h62 l200 -260h-41z" />
<glyph unicode="&#xe9;" horiz-adv-x="921" d="M172 168v688q0 76 44 122t124 46h266q81 0 124.5 -46t43.5 -122v-264h-557v-424q0 -62 32.5 -96.5t90.5 -34.5h338q40 0 65 10v-47h-403q-80 0 -124 46t-44 122zM217 629h512v227q0 62 -32.5 96.5t-88.5 34.5h-268q-58 0 -90.5 -34.5t-32.5 -96.5v-227zM395 1174l201 260 h61l-221 -260h-41z" />
<glyph unicode="&#xea;" horiz-adv-x="921" d="M172 168v688q0 76 44 122t124 46h266q81 0 124.5 -46t43.5 -122v-264h-557v-424q0 -62 32.5 -96.5t90.5 -34.5h338q40 0 65 10v-47h-403q-80 0 -124 46t-44 122zM217 629h512v227q0 62 -32.5 96.5t-88.5 34.5h-268q-58 0 -90.5 -34.5t-32.5 -96.5v-227zM254 1174l201 260 h39l200 -260h-41l-180 215l-178 -215h-41z" />
<glyph unicode="&#xeb;" horiz-adv-x="921" d="M172 168v688q0 76 44 122t124 46h266q81 0 124.5 -46t43.5 -122v-264h-557v-424q0 -62 32.5 -96.5t90.5 -34.5h338q40 0 65 10v-47h-403q-80 0 -124 46t-44 122zM217 629h512v227q0 62 -32.5 96.5t-88.5 34.5h-268q-58 0 -90.5 -34.5t-32.5 -96.5v-227zM338 1260v69h45 v-69h-45zM567 1260v69h45v-69h-45z" />
<glyph unicode="&#xec;" horiz-adv-x="389" d="M-8 1434h61l201 -260h-41zM172 0v1024h45v-1024h-45z" />
<glyph unicode="&#xed;" horiz-adv-x="389" d="M121 1174l201 260h61l-221 -260h-41zM172 0v1024h45v-1024h-45z" />
<glyph unicode="&#xee;" horiz-adv-x="389" d="M-25 1174l201 260h39l201 -260h-41l-180 215l-179 -215h-41zM172 0v1024h45v-1024h-45z" />
<glyph unicode="&#xef;" horiz-adv-x="389" d="M57 1260v69h45v-69h-45zM172 0v1024h45v-1024h-45zM287 1260v69h45v-69h-45z" />
<glyph unicode="&#xf0;" horiz-adv-x="1044" d="M184 168v442q0 76 44 122t124 46h463l-377 404l-121 -107l-28 31l121 106l-207 222h59l180 -193l119 102l29 -30l-119 -103l373 -399q16 -16 16 -53v-590q0 -76 -44 -122t-124 -46h-340q-80 0 -124 46t-44 122zM233 172q0 -63 31 -97t88 -34h336q58 0 90.5 34.5 t32.5 96.5v565h-455q-58 0 -90.5 -34.5t-32.5 -96.5v-434z" />
<glyph unicode="&#xf1;" d="M172 0v1024h455q80 0 124 -46t44 -122v-856h-45v856q0 62 -32.5 96.5t-90.5 34.5h-410v-987h-45zM180 1174v51q0 215 150 215q34 0 69 -24t64.5 -58t58.5 -68t61.5 -58t63.5 -24q37 0 58 15t34 65.5t13 145.5h32v-50q0 -119 -36.5 -168t-106.5 -49q-41 0 -85.5 36 t-77.5 79t-75 79t-79 36q-58 0 -84.5 -46t-26.5 -177h-33z" />
<glyph unicode="&#xf2;" d="M172 168v688q0 76 44 122t124 46h287q80 0 124 -46t44 -122v-688q0 -76 -44 -122t-124 -46h-287q-80 0 -124 46t-44 122zM217 168q0 -62 32.5 -96.5t90.5 -34.5h287q58 0 90.5 34.5t32.5 96.5v688q0 62 -32.5 96.5t-90.5 34.5h-287q-58 0 -90.5 -34.5t-32.5 -96.5v-688z M326 1434h61l201 -260h-41z" />
<glyph unicode="&#xf3;" d="M172 168v688q0 76 44 122t124 46h287q80 0 124 -46t44 -122v-688q0 -76 -44 -122t-124 -46h-287q-80 0 -124 46t-44 122zM217 168q0 -62 32.5 -96.5t90.5 -34.5h287q58 0 90.5 34.5t32.5 96.5v688q0 62 -32.5 96.5t-90.5 34.5h-287q-58 0 -90.5 -34.5t-32.5 -96.5v-688z M412 1174l200 260h62l-221 -260h-41z" />
<glyph unicode="&#xf4;" d="M172 168v688q0 76 44 122t124 46h287q80 0 124 -46t44 -122v-688q0 -76 -44 -122t-124 -46h-287q-80 0 -124 46t-44 122zM217 168q0 -62 32.5 -96.5t90.5 -34.5h287q58 0 90.5 34.5t32.5 96.5v688q0 62 -32.5 96.5t-90.5 34.5h-287q-58 0 -90.5 -34.5t-32.5 -96.5v-688z M264 1174l201 260h39l201 -260h-41l-181 215l-178 -215h-41z" />
<glyph unicode="&#xf5;" d="M172 168v688q0 76 44 122t124 46h287q80 0 124 -46t44 -122v-688q0 -76 -44 -122t-124 -46h-287q-80 0 -124 46t-44 122zM182 1174v51q0 215 150 215q34 0 69 -24t64.5 -58t58.5 -68t61.5 -58t63.5 -24q37 0 58 15t34 65.5t13 145.5h32v-50q0 -119 -36.5 -168t-106.5 -49 q-41 0 -85.5 36t-77.5 79t-75 79t-79 36q-58 0 -84.5 -46t-26.5 -177h-33zM217 168q0 -62 32.5 -96.5t90.5 -34.5h287q58 0 90.5 34.5t32.5 96.5v688q0 62 -32.5 96.5t-90.5 34.5h-287q-58 0 -90.5 -34.5t-32.5 -96.5v-688z" />
<glyph unicode="&#xf6;" d="M172 168v688q0 76 44 122t124 46h287q80 0 124 -46t44 -122v-688q0 -76 -44 -122t-124 -46h-287q-80 0 -124 46t-44 122zM217 168q0 -62 32.5 -96.5t90.5 -34.5h287q58 0 90.5 34.5t32.5 96.5v688q0 62 -32.5 96.5t-90.5 34.5h-287q-58 0 -90.5 -34.5t-32.5 -96.5v-688z M346 1260v69h45v-69h-45zM575 1260v69h46v-69h-46z" />
<glyph unicode="&#xf7;" horiz-adv-x="917" d="M102 580v49h713v-49h-713zM418 236v73h65v-73h-65zM418 907v74h65v-74h-65z" />
<glyph unicode="&#xf8;" d="M59 0l113 145v711q0 76 44 122t124 46h287q59 0 99.5 -26.5t55.5 -71.5l78 98h49l-114 -147v-709q0 -76 -44 -122t-124 -46h-287q-58 0 -98 26t-58 72l-75 -98h-50zM217 201l531 680q-6 52 -37.5 79t-83.5 27h-287q-58 0 -90.5 -34.5t-32.5 -96.5v-655zM219 141 q6 -50 37.5 -77t83.5 -27h287q58 0 90.5 34.5t32.5 96.5v651z" />
<glyph unicode="&#xf9;" d="M172 168v856h45v-856q0 -62 32.5 -96.5t90.5 -34.5h410v987h45v-1024h-455q-80 0 -124 46t-44 122zM313 1434h62l200 -260h-40z" />
<glyph unicode="&#xfa;" d="M172 168v856h45v-856q0 -62 32.5 -96.5t90.5 -34.5h410v987h45v-1024h-455q-80 0 -124 46t-44 122zM403 1174l201 260h62l-222 -260h-41z" />
<glyph unicode="&#xfb;" d="M172 168v856h45v-856q0 -62 32.5 -96.5t90.5 -34.5h410v987h45v-1024h-455q-80 0 -124 46t-44 122zM264 1174l201 260h39l201 -260h-41l-181 215l-178 -215h-41z" />
<glyph unicode="&#xfc;" d="M172 168v856h45v-856q0 -62 32.5 -96.5t90.5 -34.5h410v987h45v-1024h-455q-80 0 -124 46t-44 122zM346 1260v69h45v-69h-45zM575 1260v69h46v-69h-46z" />
<glyph unicode="&#xfd;" horiz-adv-x="811" d="M45 1024h51l312 -987l309 987h51l-463 -1434h-51l139 410h-18zM352 1174l201 260h61l-221 -260h-41z" />
<glyph unicode="&#xff;" horiz-adv-x="811" d="M45 1024h51l312 -987l309 987h51l-463 -1434h-51l139 410h-18zM268 1260v69h45v-69h-45zM498 1260v69h45v-69h-45z" />
<glyph unicode="&#x152;" horiz-adv-x="1685" d="M184 168v1098q0 76 44 122t124 46h1235v-52q-32 11 -61 11h-584v-615h483q30 0 60 6v-53q-30 6 -60 6h-483v-696h631q34 0 59 10v-51h-1280q-80 0 -124 46t-44 122zM233 172q0 -62 32.5 -96.5t90.5 -34.5h537v1352h-537q-58 0 -90.5 -34.5t-32.5 -96.5v-1090z" />
<glyph unicode="&#x153;" horiz-adv-x="1499" d="M172 168v688q0 76 44 122t124 46h287q108 0 145 -86q37 86 146 86h266q81 0 124.5 -46t43.5 -122v-264h-557v-424q0 -62 32.5 -96.5t90.5 -34.5h337q41 0 66 10v-47h-403q-109 0 -146 86q-37 -86 -145 -86h-287q-80 0 -124 46t-44 122zM217 168q0 -62 32.5 -96.5 t90.5 -34.5h287q58 0 90.5 34.5t32.5 96.5v688q0 62 -32.5 96.5t-90.5 34.5h-287q-58 0 -90.5 -34.5t-32.5 -96.5v-688zM795 629h512v227q0 62 -32.5 96.5t-88.5 34.5h-268q-58 0 -90.5 -34.5t-32.5 -96.5v-227z" />
<glyph unicode="&#x178;" horiz-adv-x="1081" d="M20 1434h62l461 -752l458 752h60l-494 -799v-635h-49v635zM403 1573v55h46v-55h-46zM633 1573v55h45v-55h-45z" />
<glyph unicode="&#x2c6;" horiz-adv-x="768" d="M164 1174l201 260h38l201 -260h-41l-180 215l-178 -215h-41z" />
<glyph unicode="&#x2dc;" horiz-adv-x="931" d="M164 1174v51q0 215 149 215q34 0 69.5 -24t65 -58t58 -68t61.5 -58t64 -24q37 0 58 15t33.5 65.5t12.5 145.5h33v-50q0 -119 -36.5 -168t-106.5 -49q-34 0 -69 23.5t-65 57.5t-59 68t-62 57.5t-63 23.5q-58 0 -84 -46t-26 -177h-33z" />
<glyph unicode="&#x2000;" horiz-adv-x="847" />
<glyph unicode="&#x2001;" horiz-adv-x="1694" />
<glyph unicode="&#x2002;" horiz-adv-x="847" />
<glyph unicode="&#x2003;" horiz-adv-x="1694" />
<glyph unicode="&#x2004;" horiz-adv-x="564" />
<glyph unicode="&#x2005;" horiz-adv-x="423" />
<glyph unicode="&#x2006;" horiz-adv-x="282" />
<glyph unicode="&#x2007;" horiz-adv-x="282" />
<glyph unicode="&#x2008;" horiz-adv-x="211" />
<glyph unicode="&#x2009;" horiz-adv-x="338" />
<glyph unicode="&#x200a;" horiz-adv-x="94" />
<glyph unicode="&#x2010;" horiz-adv-x="606" d="M102 578v53h402v-53h-402z" />
<glyph unicode="&#x2011;" horiz-adv-x="606" d="M102 578v53h402v-53h-402z" />
<glyph unicode="&#x2012;" horiz-adv-x="606" d="M102 578v53h402v-53h-402z" />
<glyph unicode="&#x2013;" horiz-adv-x="917" d="M102 580v49h713v-49h-713z" />
<glyph unicode="&#x2014;" horiz-adv-x="1472" d="M102 580v49h1268v-49h-1268z" />
<glyph unicode="&#x2018;" horiz-adv-x="372" d="M156 1151v141l96 215h43l-82 -227v-129h-57z" />
<glyph unicode="&#x2019;" horiz-adv-x="372" d="M78 1077l82 228v129h57v-142l-96 -215h-43z" />
<glyph unicode="&#x201a;" horiz-adv-x="372" d="M78 -283l82 228v129h57v-142l-96 -215h-43z" />
<glyph unicode="&#x201c;" horiz-adv-x="610" d="M156 1151v141l96 215h43l-82 -227v-129h-57zM393 1151v141l96 215h43l-81 -227v-129h-58z" />
<glyph unicode="&#x201d;" horiz-adv-x="610" d="M78 1077l82 228v129h57v-142l-96 -215h-43zM315 1077l82 228v129h58v-142l-97 -215h-43z" />
<glyph unicode="&#x201e;" horiz-adv-x="610" d="M78 -283l82 228v129h57v-142l-96 -215h-43zM315 -283l82 228v129h58v-142l-97 -215h-43z" />
<glyph unicode="&#x2022;" horiz-adv-x="876" d="M172 188v648q0 62 32.5 96.5t90.5 34.5h287q58 0 90.5 -34.5t32.5 -96.5v-648q0 -62 -32.5 -96.5t-90.5 -34.5h-287q-58 0 -90.5 34.5t-32.5 96.5z" />
<glyph unicode="&#x2026;" horiz-adv-x="1208" d="M143 0v74h66v-74h-66zM567 0v74h66v-74h-66zM991 0v74h66v-74h-66z" />
<glyph unicode="&#x202f;" horiz-adv-x="338" />
<glyph unicode="&#x2039;" horiz-adv-x="686" d="M82 586v41l522 407v-55l-461 -371l461 -375v-55z" />
<glyph unicode="&#x203a;" horiz-adv-x="686" d="M82 178v55l461 371l-461 375v55l522 -407v-41z" />
<glyph unicode="&#x205f;" horiz-adv-x="423" />
<glyph unicode="&#x20ac;" horiz-adv-x="999" d="M102 582v41h82v258h-82v41h82v344q0 76 44 122t124 46h566v-52q-27 11 -66 11h-496q-58 0 -90.5 -34.5t-32.5 -96.5v-340h541v-41h-541v-258h541v-41h-541v-410q0 -62 32.5 -96.5t90.5 -34.5h496q41 0 66 10v-51h-566q-80 0 -124 46t-44 122v414h-82z" />
<glyph unicode="&#x2122;" horiz-adv-x="1056" d="M141 1006v532l37 23v-127h144v-31h-144v-385q0 -31 16.5 -48.5t45.5 -17.5h49q18 0 33 6v-36h-82q-42 0 -70.5 24t-28.5 60zM416 922v512h190q31 0 50 -15t24 -35q3 19 22.5 34.5t49.5 15.5h102q40 0 63 -23t23 -61v-428h-37v415q0 66 -61 66h-84q-29 0 -45.5 -17.5 t-16.5 -48.5v-415h-37v415q0 66 -59 66h-147v-481h-37z" />
<glyph unicode="&#x25fc;" horiz-adv-x="1024" d="M0 0v1024h1024v-1024h-1024z" />
<glyph unicode="&#xfb01;" horiz-adv-x="909" d="M172 0v1266q0 76 44 122t124 46h397v-48q-28 11 -65 11h-332q-58 0 -90.5 -34.5t-32.5 -96.5v-242h520v-1024h-45v987h-475v-987h-45z" />
<glyph unicode="&#xfb02;" horiz-adv-x="909" d="M172 0v1266q0 76 44 122t124 46h166v-48q-27 11 -66 11h-100q-58 0 -90.5 -34.5t-32.5 -96.5v-242h475v410h45v-1434h-45v987h-475v-987h-45z" />
</font>
</defs>
</svg>
